# xmcd
#
# Track frame offsets: 
#        150
#        16006
#        35019
#        49806
#        67328
#        86327
#        102403
#        115214
#        141511
#        157121
#        171277
#        193613
#        215716
#
# Disc length: 3143 seconds
#
# Revision: 0
# Processed by: cddbd v1.5.2PL0 Copyright (c) Steve Scherf et al.
# Submitted via: ExactAudioCopy v0.99pb3
#
DISCID=c20c450d
DTITLE=John Hammond - Ready For Love
DYEAR=2003
DGENRE=Blues
TTITLE0=Slick Crown Vic
TTITLE1=No Chance
TTITLE2=Easy Loving
TTITLE3=Gin Soaked Boy
TTITLE4=Spider And The Fly
TTITLE5=Can't Remember To Forget
TTITLE6=Color Of The Blues
TTITLE7=Same Thing
TTITLE8=I Brought The Rain
TTITLE9=Comes Love
TTITLE10=Low Side Of The Road
TTITLE11=Money Honey
TTITLE12=Just One More
EXTD=
EXTT0=
EXTT1=
EXTT2=
EXTT3=
EXTT4=
EXTT5=
EXTT6=
EXTT7=
EXTT8=
EXTT9=
EXTT10=
EXTT11=
EXTT12=
PLAYORDER=
